<svg width="209" height="313" viewBox="0 0 209 313" fill="none" xmlns="http://www.w3.org/2000/svg">
<path d="M0 1H209V312H0V1Z" fill="#FF4848"/>
<path d="M209 312.5C209 284.785 197.99 258.205 178.393 238.607C158.795 219.01 132.215 208 104.5 208C76.7849 208 50.2049 219.01 30.6073 238.607C11.0098 258.205 4.18487e-06 284.785 0 312.5L104.5 312.5H209Z" fill="#FFD43E"/>
<path d="M209 0.5C209 28.2151 197.99 54.7951 178.393 74.3927C158.795 93.9902 132.215 105 104.5 105C76.7849 105 50.2049 93.9902 30.6073 74.3927C11.0098 54.7951 4.18487e-06 28.2151 0 0.500016L104.5 0.5H209Z" fill="#FFD43E"/>
<path d="M187 312.5C187 290.62 178.308 269.635 162.836 254.164C147.365 238.692 126.38 230 104.5 230C82.6196 230 61.6354 238.692 46.1637 254.164C30.6919 269.635 22 290.62 22 312.5H104.5H187Z" fill="#FF4848"/>
<path d="M187 0.5C187 22.3804 178.308 43.3646 162.836 58.8363C147.365 74.3081 126.38 83 104.5 83C82.6196 83 61.6354 74.3081 46.1637 58.8363C30.6919 43.3646 22 22.3804 22 0.500012L104.5 0.5H187Z" fill="#FF4848"/>
<path d="M164 312.5C164 296.72 157.731 281.586 146.573 270.427C135.414 259.269 120.28 253 104.5 253C88.7196 253 73.5856 259.269 62.4272 270.427C51.2687 281.586 45 296.72 45 312.5H104.5H164Z" fill="#FFD43E"/>
<path d="M164 0.5C164 16.2804 157.731 31.4144 146.573 42.5729C135.414 53.7313 120.28 60 104.5 60C88.7196 60 73.5856 53.7313 62.4272 42.5729C51.2687 31.4144 45 16.2804 45 0.500009L104.5 0.5H164Z" fill="#FFD43E"/>
<path d="M141 312.5C141 302.82 137.154 293.536 130.309 286.691C123.464 279.846 114.18 276 104.5 276C94.8196 276 85.5357 279.846 78.6906 286.691C71.8455 293.536 68 302.82 68 312.5H104.5H141Z" fill="#FF4848"/>
<path d="M141 0.5C141 10.1804 137.154 19.4643 130.309 26.3094C123.464 33.1545 114.18 37 104.5 37C94.8196 37 85.5357 33.1545 78.6906 26.3094C71.8455 19.4643 68 10.1804 68 0.500006L104.5 0.5H141Z" fill="#FF4848"/>
<path d="M121 312.5C121 308.124 119.262 303.927 116.167 300.833C113.073 297.738 108.876 296 104.5 296C100.124 296 95.9271 297.738 92.8327 300.833C89.7384 303.927 88 308.124 88 312.5H104.5H121Z" fill="#FFD43E"/>
<path d="M121 0.5C121 4.87607 119.262 9.07291 116.167 12.1673C113.073 15.2616 108.876 17 104.5 17C100.124 17 95.9271 15.2616 92.8327 12.1673C89.7384 9.07291 88 4.87607 88 0.500002L104.5 0.5H121Z" fill="#FFD43E"/>
<path d="M38.8238 154.375C37.18 148.24 40.8207 141.934 46.9556 140.29L177.356 105.35C183.49 103.706 189.796 107.346 191.44 113.481C193.084 119.616 189.443 125.922 183.308 127.566L52.9084 162.506C46.7735 164.15 40.4677 160.51 38.8238 154.375Z" fill="#FFD43E"/>
<path d="M17.5599 202.519C15.916 196.384 19.5567 190.078 25.6916 188.434L156.092 153.494C162.226 151.85 168.532 155.49 170.176 161.625C171.82 167.76 168.179 174.066 162.044 175.71L31.6444 210.65C25.5096 212.294 19.2037 208.654 17.5599 202.519Z" fill="#FFD43E"/>
</svg>
