<svg width="23" height="22" viewBox="0 0 23 22" fill="none" xmlns="http://www.w3.org/2000/svg">
<path d="M21.6785 18.2949L17.5769 14.1934C17.3718 14.0293 17.1257 13.9062 16.8796 13.9062H16.2234C17.3308 12.4707 18.0281 10.666 18.0281 8.65625C18.0281 3.98047 14.1726 0.125 9.49683 0.125C4.78003 0.125 0.965576 3.98047 0.965576 8.65625C0.965576 13.373 4.78003 17.1875 9.49683 17.1875C11.4656 17.1875 13.2703 16.5312 14.7468 15.3828V16.0801C14.7468 16.3262 14.8289 16.5723 15.0339 16.7773L19.0945 20.8379C19.5046 21.248 20.1199 21.248 20.489 20.8379L21.6375 19.6895C22.0476 19.3203 22.0476 18.7051 21.6785 18.2949ZM9.49683 13.9062C6.58472 13.9062 4.24683 11.5684 4.24683 8.65625C4.24683 5.78516 6.58472 3.40625 9.49683 3.40625C12.3679 3.40625 14.7468 5.78516 14.7468 8.65625C14.7468 11.5684 12.3679 13.9062 9.49683 13.9062Z" fill="white"/>
</svg>
