<?xml version="1.0" encoding="UTF-8" standalone="no"?>
<!-- Created with Inkscape (http://www.inkscape.org/) -->

<svg
   xmlns:svg="http://www.w3.org/2000/svg"
   xmlns="http://www.w3.org/2000/svg"
   version="1.1"
   width="89.2668mm"
   height="122.544mm"
   viewBox="0 0 89.2668 122.544"
   id="svg2"
   xml:space="preserve"
   style="fill-rule:evenodd">
 <defs
   id="defs4">
  <style
   type="text/css"
   id="style6" />
 </defs>
 <g
   id="Слой_x0020_1">
  
  <g
   id="_295616312">
   <path
   d="m 64.5921,38.2969 c -0.2544,0.1835 -0.5239,0.3524 -0.8028,0.5076 l -0.0318,0.2405 c -0.1038,0.7847 -0.204,1.6267 -0.5768,2.3363 -0.3313,0.6305 -0.2716,0.6496 0.1554,1.411 0.4237,0.6915 0.5547,1.0406 1.5147,0.7457 1.1231,-0.3456 2.4553,-0.1761 3.6193,-0.169 0.6281,0.0039 0.786,-0.1805 1.1241,-0.6312 0.7362,-0.9816 1.4846,-2.1525 2.5366,-2.8204 0.3408,-0.2163 0.6207,-0.3349 0.8946,-0.3941 l 0,-0.0365 c 0,-1.5392 0.5174,-1.9554 1.7073,-2.0405 l 0.0106,-0.1812 c 0.0043,-0.0734 0.01,-0.1469 0.0171,-0.2204 -0.6842,0.2084 -1.3811,0.3935 -2.0777,0.5509 -0.8024,0.1814 -1.8186,0.3874 -2.6403,0.3545 l -0.5446,-0.0218 c -0.0575,0.0435 -0.1122,0.0898 -0.1632,0.1393 -0.3861,0.3744 -0.4871,0.8732 -0.4871,1.3941 l 0,0.6288 -0.5278,-0.3419 c -0.5912,-0.3831 -0.7732,-0.9856 -0.6855,-1.5947 -0.9847,0.7456 -1.4818,2.1499 -2.7012,2.6557 l -0.6654,0.276 0.2069,-0.69 c 0.0823,-0.2743 0.0984,-0.654 0.1088,-0.9398 0.0139,-0.3853 0.0122,-0.7728 0.0088,-1.1589 z m -50.6563,68.6138 c -0.2055,0.1118 -0.4074,0.2303 -0.6123,0.3433 -1.0048,0.5538 -2.0711,0.9177 -2.8989,-0.1536 -0.6417,-0.8302 -1.3478,-1.6074 -2.0127,-2.4186 -0.1871,-0.2285 -0.4799,-0.5317 -0.4254,-0.8512 0.0524,-0.3069 0.4465,-0.5361 0.6756,-0.7222 l 0.383,-0.3111 c -2.5428,-1.9405 -5.9994,-3.12 -7.9,-5.7674 C -0.6,94.5993 0.1686,91.7845 0.1686,89.0756 l 2.1215,0 0.07,0.2493 c 1.1944,4.2464 8.3592,2.6119 9.4347,5.5954 0.3023,-0.4734 0.7299,-0.8713 1.2915,-1.1673 1.2213,-0.6438 2.2664,-1.6039 3.5087,-2.2198 l 0.0156,-0.0077 c -0.1999,-0.4926 -0.3474,-1.0128 -0.4421,-1.5619 -0.3711,-2.1509 0.117,-4.4501 0.8257,-6.4812 1.4086,-4.0375 5.8884,-7.1042 9.6146,-8.7989 1.1823,-0.5377 2.4718,-1.025 3.8038,-1.4125 1.6412,-0.4772 1.7514,-0.4388 1.9151,-2.1485 0.0735,-0.7681 0.2463,-1.5209 0.544,-2.239 -0.2415,-0.0262 -0.5077,-0.1272 -0.8188,-0.331 -0.3279,-0.2149 -0.5585,-0.5068 -0.6721,-0.8419 -0.0577,0.0039 -0.1126,0.006 -0.1638,0.006 -1.8211,0 -2.6038,0.8845 -4.1166,1.5296 -0.7638,0.3257 -1.9734,0.6186 -2.7641,0.3301 l 10e-5,-2e-4 C 23.7927,69.5208 23.4696,69.1157 22.9998,68.3652 22.7461,67.9599 22.5906,67.5306 22.621,67.119 22.7028,66.0115 22.6858,66.3133 21.9077,65.325 21.5974,64.9308 21.4473,64.4612 21.74,63.9536 l 0.0572,-0.0991 0.1053,-0.0448 c 0.0664,-0.0282 0.1335,-0.0578 0.201,-0.0886 -2.2077,-1.9679 -2.5587,-5.229 -2.155,-8.0022 0.3033,-2.0842 1.1114,-4.432 2.3964,-6.1166 1.0106,-1.3248 2.2338,-2.6863 3.6918,-3.5222 1.0157,-0.5822 2.0202,-0.8324 3.1811,-0.9138 1.0099,-0.0708 2.0298,-0.0309 3.0349,-0.1594 1.293,-0.1655 2.438,-0.5831 3.563,-1.2363 2.3557,-1.3678 6.2699,-2.3895 8.9935,-2.3895 1.2717,0 2.3891,0.105 3.5591,0.6461 0.227,0.105 0.4491,0.2195 0.6712,0.3342 0.0378,-0.3492 0.225,-0.7233 0.4059,-0.969 0.3486,-0.4735 0.8613,-0.7898 1.4569,-0.7567 -4e-4,-0.2169 0.0447,-0.4635 0.145,-0.7474 -0.2033,-0.0332 -0.4052,-0.0688 -0.605,-0.1072 -0.7777,-0.1492 -1.6717,-0.5871 -2.2445,-1.1415 -0.4531,-0.4386 -0.8083,-0.9686 -1.137,-1.5034 l -0.3199,-0.0714 c -4.0728,-0.9105 -8.2591,-3.9294 -11.1876,-6.8155 -2.2404,-2.208 -4.334,-4.8838 -5.6668,-7.7454 -1.1097,-2.3821 -1.8243,-5.222 -0.9964,-7.804 0.5912,-1.8437 1.8389,-3.1704 3.3751,-4.1258 l -0.1651,-0.2331 0.237,-0.2028 C 34.001,8.714 36.2125,7.9198 38.3253,7.4604 41.7952,6.706 45.1947,6.3335 48.6267,6.5398 L 49.293,6.2792 c 1.7281,-0.6757 3.2857,-1.7778 4.8081,-2.8209 1.6459,-1.1277 3.3307,-2.2538 5.2494,-2.8623 2.3891,-0.7577 5.07,-0.7436 7.5086,-0.2371 3.8166,0.7926 8.2073,3.1093 9.6177,6.9841 0.4442,1.2201 0.5433,2.4964 0.3179,3.7739 l -0.5569,3.1558 c -0.2253,1.2777 -0.4138,2.5011 -0.4899,3.7636 -0.0623,1.0367 -0.1444,1.6459 0.6242,2.3147 0.7067,0.615 1.4031,1.2464 2.068,1.8949 0.0168,-0.7091 0.4623,-1.257 1.3753,-1.1574 l 0.2821,0.0308 0.0031,0.0403 c 0.0084,-0.0263 0.0181,-0.0523 0.0289,-0.0779 0.1736,-0.4091 0.5891,-0.5758 1.0013,-0.6351 l 0.1879,-0.0271 0.1223,0.1452 c 0.1762,0.2091 0.3557,0.4157 0.535,0.6222 0.2802,0.323 0.5829,0.6568 0.8468,0.997 0.2359,-0.4965 0.6711,-1.03 1.2099,-0.9717 l 0.1254,0.0137 0.0865,0.0918 c 0.3718,0.3945 0.4282,0.7643 0.6901,1.1872 0.367,0.5931 0.599,1.1935 0.6851,1.8547 0.0794,0.6095 -0.0197,1.0581 0.4818,1.5144 1.637,1.489 1.4898,3.9666 0.5556,5.8675 -0.3797,0.7729 -0.8217,1.5477 -1.2563,2.291 -0.2658,0.4546 -0.5385,0.9073 -0.8252,1.349 -0.1645,0.2536 -0.3472,0.5334 -0.5429,0.7789 -0.1725,0.2163 -0.3865,0.5137 -0.0715,0.7238 1.9576,1.3068 3.5692,3.1862 4.5001,5.3452 0.8596,1.9938 1.1927,4.4327 0.1823,6.438 l -0.4733,0.9395 -0.1085,-0.6648 c 0.0552,1.006 -0.1008,1.9991 -0.6183,2.872 l -0.1613,0.2723 0.0019,0.0066 0.0024,0.0095 c 0.2414,0.9782 -0.8765,2.4357 -1.4809,3.1489 -1.1567,1.365 -2.5963,2.5916 -4.0866,3.5787 -0.3481,0.2306 -0.7036,0.45 -1.0665,0.6564 -1.4955,0.85 -3.1371,1.4096 -4.8053,1.8084 -0.6467,0.1545 -1.2988,0.2838 -1.9521,0.4068 -0.424,0.0798 -0.8569,0.147 -1.2727,0.2629 -1.7623,0.4914 -6.5384,1.5221 -7.0739,3.5492 l -0.0815,0.3087 c 1.1596,1.2302 2.0122,2.9068 2.7909,4.2984 l 0.414,0.1786 c 1.6318,0.7039 3.3376,1.3587 5.1469,1.2824 2.6522,-0.1119 4.593,-1.7697 6.0601,-3.8602 l 0.3586,-0.511 0.2374,0.5774 c 0.9538,2.3196 2.1892,4.5212 3.8466,6.4139 l 0.1216,0.1389 -0.0494,0.1778 c -1.0015,3.6057 -3.8674,5.1579 -7.4214,5.0909 0.0124,0.0574 0.0238,0.1154 0.0341,0.1742 l 0.0237,0.1352 -4.6127,6.8874 -0.1054,-0.9254 c -0.0233,-0.205 -0.0648,-0.4072 -0.1232,-0.605 -0.398,-1.3479 -1.5806,-2.448 -2.6517,-3.2907 -1.0689,-0.8409 -2.2256,-1.59 -3.3667,-2.3484 0.107,3.4225 0.3539,6.641 -1.3955,9.2954 -0.5074,0.7698 -0.9741,1.9181 10e-4,2.5389 0.9812,0.6246 1.9967,1.149 3.074,1.6886 1.1693,0.5858 2.5048,1.2347 3.357,2.2549 0.7671,0.9184 1.0432,2.0028 1.0739,3.1808 0.0244,0.9342 -0.102,1.9338 -0.3001,2.9185 l 0.0402,0.0137 c 0.8992,0.3079 1.7059,1.057 2.1204,1.9526 -4e-4,-0.0178 -7e-4,-0.0343 -7e-4,-0.0493 l 0,-0.4379 0.4248,0.1062 c 1.5079,0.377 2.629,0.8752 3.9746,1.6285 0.4521,0.2532 1.3291,1.1697 1.4762,1.7719 l 0.0127,-0.006 1.0068,0.6815 0.0047,0.004 c 0.2047,0.1489 0.4952,0.2862 0.6105,0.5176 0.1276,0.2563 0.0334,0.5417 -0.0616,0.7911 -0.4139,1.0875 -0.968,2.1107 -1.6806,3.032 -0.5057,0.6538 -0.5517,0.8606 -1.4262,0.6083 l -0.4751,-0.1372 c -0.0777,0.4431 -0.1187,0.8436 -0.1187,1.1616 0,4.3481 -4.7959,10.8068 -9.8557,9.1222 l -0.1211,-0.0404 -0.065,-0.1097 c -0.1898,-0.3203 -0.2692,-1.0635 -0.3103,-1.4404 l -0.0366,-0.3344 0.3338,-0.0419 c 0.5065,-0.0636 0.9341,-0.2055 1.2579,-0.6164 0.2427,-0.3079 0.4187,-0.714 0.6233,-1.0531 0.2608,-0.4324 0.5575,-0.7841 0.9388,-1.0876 -0.2804,-0.4734 -0.4326,-0.8081 -0.4326,-1.4651 l 0,-0.0466 0.0124,-0.0449 c 0.0798,-0.287 0.1971,-0.6911 0.1416,-0.9927 -0.027,-0.1471 -0.0758,-0.2976 -0.1102,-0.4443 -0.0671,-0.2853 -0.1062,-0.5734 -0.1304,-0.8653 -0.0668,-0.806 -0.2951,-1.5093 0.1161,-2.2887 0.0527,-0.0997 0.1351,-0.2159 0.2285,-0.3406 -0.1494,0.042 -0.306,0.0639 -0.4708,0.0639 l -0.1216,0 -2.2474,-1.8291 c -2.0425,1.5904 -4.5942,2.6074 -7.0504,3.127 -3.5398,0.7485 -7.9359,0.6653 -11.1822,-1.0929 -0.784,-0.4247 -1.6091,-1.2247 -2.2353,-1.8563 -0.8984,-0.9062 -1.7499,-1.8707 -2.5879,-2.8327 -1.0257,-1.1773 -2.0339,-2.3829 -3.0942,-3.5284 -0.2357,-0.2548 -1.4295,-1.5309 -1.7691,-1.5662 l -0.4829,0.0478 c -0.9254,0.7708 -1.9116,1.4703 -3.0006,1.9686 -2.686,1.2291 -5.3035,0.8782 -7.9228,-0.3512 -1.6514,-0.7751 -2.573,-1.6461 -3.426,-3.2352 -0.3552,-0.6617 -0.6495,-1.2682 -1.0557,-1.8489 -0.8055,0.6528 -1.6605,1.2359 -2.5289,1.7992 -2.1917,1.4212 -1.588,0.8375 -2.5618,3.5316 -0.2634,0.7283 -0.8522,1.3924 -1.3873,1.8559 -0.6451,0.5585 -1.6489,1.1951 -2.5153,1.2835 -0.1276,0.013 -0.255,0.0229 -0.3817,0.0285 l -0.5216,0.2837 z"
   id="_295620080"
   style="fill:#2b2a29" />
   <path
   d="m 66.1418,35.6951 c -0.6685,2.5512 -4.4427,4.0369 -7.7596,4.2931 -2.0272,0.1564 -5.8956,-0.163 -7.8755,-0.5428 -0.6422,-0.1232 -1.5038,-0.5023 -2.0712,-1.0514 -0.8293,-0.8028 -1.3422,-1.9702 -2.1912,-3.2364 -1.4934,-2.2272 -3.2096,-4.7022 -3.617,-6.1139 -0.2117,-0.7333 -0.2065,-1.6442 -0.0505,-2.6487 0.2431,-1.5657 1.405,-3.2778 2.2719,-4.9607 0.2569,0.956 1.2533,1.6178 2.2036,1.8116 1.0438,0.213 1.9882,-0.1936 2.7842,-0.8567 l 0.1646,-0.1371 -0.0516,-0.2079 c -0.2111,-0.851 -1.0203,-2.0078 -1.8285,-2.3782 -1.0456,-0.4789 -1.9313,-0.5215 -2.6098,0.0675 0.0952,-0.4731 0.1222,-0.9193 0.1973,-1.358 0.2263,-0.2342 1.6567,-0.5227 2.2481,-0.2815 1.0604,0.4324 2.046,1.1469 2.1158,1.1408 -0.0846,-0.7622 -1.4708,-1.5474 -2.0805,-1.7125 -0.6355,-0.1721 -1.405,-0.1643 -2.0663,0.0462 0.1432,-0.3817 0.3377,-0.7697 0.529,-1.1093 0.2361,0.004 0.472,0.0065 0.7072,0.0029 0.3961,-0.0062 0.7942,-0.0359 1.167,-0.1811 0.9071,-0.3534 1.6375,-1.5301 2.1519,-2.3076 0.1428,-0.2159 0.362,-0.41 0.6101,-0.5628 -0.1863,0.9301 0.2206,2.1861 0.695,2.7518 0.7599,0.9061 1.5781,1.3629 2.7795,1.3629 l 0.3418,0 c 0.6484,0.0505 0.7502,-0.0515 1.3499,0.2957 0.3403,0.1968 0.6923,0.3797 1.0363,0.5712 0.4814,0.268 0.9588,0.5459 1.4206,0.8468 0.548,0.357 1.2158,0.8295 1.6268,1.3414 l 0.2743,0.3415 0.2647,-0.3489 c 0.3162,-0.4169 0.5314,-0.7807 0.6533,-1.3009 0.0347,-0.1481 0.0579,-0.2968 0.0707,-0.4458 0.5128,1.0488 0.7494,2.2147 1.2892,3.2612 0.2704,0.524 1.172,1.3935 1.8256,1.5041 0.1168,0.0197 0.5458,0.0656 0.5387,0.2263 -0.0063,0.1425 -0.0106,0.2865 -0.0106,0.4326 0,1.6818 0.8433,3.1722 1.4445,4.6932 0.3129,0.7915 0.624,1.6621 0.2429,2.486 l -0.378,0.8171 0.8251,-0.3602 c 0.4509,-0.1969 0.9082,-0.377 1.3611,-0.5689 0.3625,-0.1537 0.7537,-0.3242 1.0818,-0.5428 0.4063,-0.2708 0.7776,-0.7118 1.0535,-1.2096 l 0.045,0.0604 c 2.2795,0.5147 1.6156,2.2153 0.5387,3.199 -0.5446,0.4976 -1.3142,0.4647 -1.6195,0.7087 -0.7713,0.6165 -0.7299,1.7129 -1.6629,2.4527 -0.8116,0.6436 -1.4348,0.3419 -2.037,-0.291 z m -2.7232,3.3051 c -0.136,1.0282 -0.3267,2.0061 -0.8485,2.7779 -0.7006,1.0364 -2.7638,2.0393 -4.2792,2.0393 -0.8156,0 -2.674,-0.1834 -3.0632,0.9189 0,-1.2266 -1.196,-2.1856 -2.2207,-2.6228 -1.3298,-0.5673 -2.1031,-0.874 -1.6156,-2.1714 1.0005,0.1494 2.029,0.2449 3.0198,0.3174 1.2917,0.0946 2.7059,0.1692 3.9973,0.0695 0.7049,-0.0544 1.4085,-0.1605 2.0985,-0.3146 0.9034,-0.2018 1.9468,-0.5311 2.9116,-1.0142 z m 7.6035,-8.0978 c -1.3181,1.8672 -4.6744,0.6475 -4.1812,3.6068 -0.0265,-0.6916 1.5677,-1.5309 1.8791,-0.9081 -0.2636,-0.3691 0.0694,-0.7702 0.3838,-0.9642 0.6905,-0.4262 1.9183,-0.7013 1.9183,-1.7345 z M 48.9322,25.7307 c -0.7992,-1.1069 1.8099,-1.9107 2.0081,-3.0853 0.0908,-0.538 0.5003,-1.2961 -0.6572,-2.9939 0.9362,1.8338 0.317,3.2806 -1.2779,4.2536 -0.5469,0.3336 -1.0263,0.7055 -1.0263,1.343 0,0.509 0.8866,0.6648 0.9533,0.4826 z m 8.3457,-3.5369 c 0.4607,-0.1392 0.9291,-0.3028 1.354,-0.3665 1.4072,-0.2111 3.2174,0.9828 4.5925,2.5721 -0.8582,-2.5012 -3.7067,-4.3773 -6.6633,-2.8124 -0.5862,0.3102 -0.3211,0.5774 -0.1264,0.6772 0.2349,0.1205 0.5046,0.032 0.8432,-0.0704 z m -5.7169,5.0156 c -0.2305,0 -0.9414,-0.2624 -0.9414,-0.54 0,-0.6269 1.3093,-0.2698 0.9414,0.54 z m 4.7446,-3.1312 c 0.9412,-1.0435 2.2416,-0.9714 3.4391,-0.4687 1.2115,0.5087 1.6923,1.5363 2.5662,2.4101 l 0.417,0.4171 -0.5691,0.1546 c -0.6591,0.179 -1.1226,0.6765 -1.8088,0.7769 -1.9725,0.289 -4.1972,-0.8624 -4.1323,-3.0711 l 0.0037,-0.1256 0.0842,-0.0933 z"
   id="_295620176"
   style="fill:#fcd5a6" />
   <path
   d="m 44.8199,20.7113 c 0.7087,-1.5347 1.8512,-1.7094 3.3011,-1.0453 0.8082,0.3704 1.6174,1.5272 1.8285,2.3782 l 0.0516,0.2079 -0.1646,0.1371 c -0.796,0.6631 -1.7404,1.0697 -2.7842,0.8567 -1.1384,-0.2321 -2.3432,-1.1358 -2.2632,-2.4126 l 0.0039,-0.0638 0.0269,-0.0582 z"
   id="_295620272"
   style="fill:#2b2a29" />
   <path
   d="m 49.026,20.9357 c 0.282,0.391 0.5015,0.8275 0.5917,1.1908 -0.7925,0.6602 -1.6302,0.9613 -2.4971,0.7844 -0.0879,-0.0179 -0.1767,-0.0404 -0.2656,-0.0674 0.3964,-0.0574 0.775,-0.2204 1.1017,-0.4636 0.4923,-0.3666 0.8387,-0.8819 1.0693,-1.4442 z"
   id="_295620440"
   style="fill:#fefefe" />
   <path
   d="m 45.1302,20.8547 c 0.0502,-0.1086 0.1023,-0.2091 0.1566,-0.302 0.2174,1.6908 2.2976,1.8857 2.936,-0.436 l 0,-1e-4 c 0.1915,0.1304 0.381,0.3067 0.5564,0.5078 -0.2051,0.5742 -0.5335,1.1141 -1.0267,1.4813 -0.4302,0.3203 -0.9547,0.4768 -1.4788,0.3996 -0.2225,-0.0326 -0.2782,-0.0651 -0.4512,-0.2089 -0.4325,-0.3597 -0.7292,-0.8515 -0.6923,-1.4417 z"
   id="_295620512"
   style="fill:#a75f4a" />
   <path
   d="m 46.9904,21.7543 c 0.0371,-0.0143 0.0742,-0.0306 0.1111,-0.0486 0.0794,0.1637 0.2002,0.4164 0.2816,0.6233 -0.0549,0.0262 -0.1107,0.0498 -0.1673,0.071 -0.0754,-0.1727 -0.1598,-0.4211 -0.2254,-0.6457 z m -0.6714,0.0648 c 0.0348,0.0069 0.07,0.0122 0.1055,0.0158 -0.0589,0.2144 -0.1463,0.4639 -0.2159,0.66 -0.0374,-0.0067 -0.0696,-0.0138 -0.0986,-0.0222 0.0497,-0.1848 0.138,-0.4579 0.209,-0.6536 z m -0.4596,-0.2024 0.0078,0.0056 c -0.0464,0.0798 -0.0993,0.2164 -0.1229,0.2619 -0.015,0.0289 -0.0715,0.1338 -0.1231,0.2244 L 45.596,22.0815 c 0.0678,-0.1411 0.1521,-0.2607 0.2316,-0.3956 0.0061,-0.0105 0.0182,-0.04 0.0318,-0.0692 z m 0.7686,0.2204 c 0.0235,-0.0017 0.0471,-0.0042 0.0707,-0.0073 -0.0076,0.1696 -0.0158,0.3548 0.0291,0.4985 0.0185,0.0593 0.0403,0.1197 0.052,0.1808 -0.0383,0.005 -0.0766,0.0087 -0.1152,0.0113 -0.0568,-0.1809 -0.0403,-0.4855 -0.0366,-0.6833 z m 0.7742,-0.3254 0.0318,-0.0266 c 0.0363,0.0223 0.084,0.0612 0.0988,0.0977 0.0382,0.0937 0.1723,0.2442 0.2419,0.3212 0.0111,0.0122 0.0407,0.0684 0.0694,0.13 -0.0208,0.0171 -0.0419,0.0338 -0.0633,0.0503 -0.04,-0.0506 -0.0766,-0.1032 -0.1092,-0.1605 -0.0633,-0.1114 -0.2216,-0.2844 -0.2694,-0.4121 z"
   id="_295620656"
   style="fill:#d7b56d" />
   <ellipse
   cx="46.1334"
   cy="20.3083"
   rx="0.268709"
   ry="0.223924"
   id="_295620824"
   style="fill:#fefefe" />
   <path
   d="m 56.3056,24.0782 c 0.9412,-1.0435 2.2416,-0.9714 3.4391,-0.4687 1.2115,0.5087 1.6923,1.5363 2.5662,2.4101 l 0.417,0.4171 -0.5691,0.1546 c -0.6591,0.179 -1.1226,0.6765 -1.8088,0.7769 -1.9725,0.289 -4.1972,-0.8624 -4.1323,-3.0711 l 0.0037,-0.1256 0.0842,-0.0933 z"
   id="_295620920"
   style="fill:#2b2a29" />
   <path
   d="m 61.2357,25.2985 c 0.2635,0.3217 0.5254,0.6549 0.8335,0.9629 -0.753,0.2045 -1.143,0.6769 -1.7687,0.7686 -0.3872,0.0567 -0.7809,0.0538 -1.1607,-0.0041 0.1644,-0.0193 0.3275,-0.0554 0.4874,-0.1091 0.8032,-0.2699 1.3199,-0.8858 1.6085,-1.6183 z"
   id="_295620992"
   style="fill:#fefefe" />
   <path
   d="m 56.5595,24.3072 c 0.2624,-0.2909 0.5535,-0.4796 0.8602,-0.5894 -0.4572,1.0089 0.1452,1.9317 1.0021,2.1707 0.9008,0.2512 1.7135,-0.2849 1.9454,-1.5049 0.2247,0.1838 0.4239,0.3923 0.6148,0.6124 -0.2374,0.7172 -0.6992,1.3398 -1.4637,1.5968 -0.4231,0.1422 -0.8705,0.1395 -1.2985,0.0202 -0.4683,-0.1307 -0.8898,-0.4029 -1.1982,-0.779 -0.3043,-0.4162 -0.4797,-0.9292 -0.4621,-1.5268 z"
   id="_295621088"
   style="fill:#a75f4a" />
   <path
   d="m 57.6784,25.4423 c 0.0177,0.0186 0.0358,0.0368 0.0544,0.0546 -0.1022,0.2081 -0.2281,0.4343 -0.409,0.5653 -0.0125,0.009 -0.0308,0.0212 -0.0508,0.0338 -0.0148,-0.0131 -0.0293,-0.0265 -0.0437,-0.04 0.0858,-0.1061 0.1535,-0.265 0.2326,-0.3736 0.0506,-0.0692 0.1819,-0.1448 0.2072,-0.221 0.0012,-0.0036 0.0045,-0.0105 0.0093,-0.0191 z m 0.353,0.2802 c 0.0162,0.0095 0.0325,0.0188 0.049,0.0277 -0.0152,0.0344 -0.0311,0.0678 -0.0453,0.0979 -0.09,0.1907 -0.1664,0.4033 -0.2877,0.5768 -0.0285,-0.015 -0.0567,-0.0305 -0.0845,-0.0467 0.0441,-0.1111 0.1012,-0.2188 0.1719,-0.3022 0.0634,-0.0748 0.1423,-0.2523 0.1966,-0.3535 z m 0.3428,0.1518 c 0.0158,0.0049 0.0316,0.0097 0.0476,0.0142 0.0281,0.0078 0.0562,0.0149 0.0841,0.0212 -0.0366,0.1747 -0.0977,0.3416 -0.1531,0.5185 -0.0151,0.0482 -0.021,0.1279 -0.0309,0.2109 -0.0342,-0.008 -0.0682,-0.0167 -0.1021,-0.0261 -0.0237,-0.0067 -0.0473,-0.0137 -0.0709,-0.021 0.0866,-0.2247 0.1946,-0.5068 0.2253,-0.7177 z m 0.5508,0.0726 c 0.0351,-0.002 0.0701,-0.0052 0.1045,-0.0097 l 0,0.7564 c -0.0331,0.0028 -0.0663,0.0047 -0.0994,0.0059 -0.0138,-0.2479 -0.0077,-0.5027 -0.0051,-0.7526 z m 0.4647,-0.1103 c 0.0125,-0.0055 0.0251,-0.0113 0.0375,-0.0173 0.0219,0.0676 0.0334,0.1406 0.0581,0.2084 0.0488,0.1336 0.1312,0.3003 0.1312,0.4419 l -3e-4,0.0876 -0.0423,0.016 -0.0126,-0.0621 c -0.0436,-0.2221 -0.1755,-0.446 -0.1716,-0.6744 l 0,-10e-5 z"
   id="_295621184"
   style="fill:#d7b56d" />
   <ellipse
   cx="58.324001"
   cy="24.1395"
   rx="0.29742599"
   ry="0.26570001"
   id="_295621280"
   style="fill:#fefefe" />
   <path
   d="m 46.3491,30.0145 -0.0197,0.0082 -0.0799,-0.1767 c -0.2822,-0.5441 -0.291,-0.5993 -0.3161,-0.8642 -0.0169,-0.1789 -0.0874,-0.1704 -0.2127,-0.0645 -0.124,0.1048 -0.228,0.2343 -0.2788,0.3684 0.0652,-0.248 0.2425,-0.4679 0.4516,-0.6551 l 0.0575,-0.05 c 0.1587,-0.1344 0.3308,-0.2507 0.4834,-0.3469 -0.1826,0.2441 -0.4284,0.4661 -0.2526,0.6718 0.2485,0.2907 0.558,0.4784 1.0176,0.5918 0.0562,0.014 0.1053,0.0246 0.1335,0.0307 0.3309,0.0715 0.8268,0.1335 1.0127,0.4518 0.0344,0.059 0.1077,0.1929 0.1644,0.2699 0.0549,-8e-4 0.1131,-0.005 0.1671,-0.0031 0.1842,0.0065 0.3661,0.0399 0.5441,0.0867 0.412,0.1082 0.5946,0.3437 0.859,0.6488 0.128,0.1476 0.2859,0.2537 0.4657,0.3282 0.1296,0.0538 0.2666,0.0897 0.4047,0.1134 0.3499,0.06 0.7186,0.0453 1.0706,0.0113 0.5586,-0.0541 1.1144,-0.0718 1.6725,-0.0834 0.1189,-0.0025 -0.02,-0.5282 -0.4525,-0.9308 0.8017,0.5469 1.2738,1.1211 1.4165,1.7225 -0.1219,-0.3506 -0.5833,-0.7296 -0.7529,-0.6655 -0.2985,0.1128 -0.5581,0.2733 -0.8094,0.4526 -0.8608,0.614 -1.8198,1.2557 -2.607,1.9492 -0.6301,0.5553 -1.5769,0.5625 -2.3564,0.3935 -0.3774,-0.0817 -0.7579,-0.2274 -1.0398,-0.5004 -0.2998,-0.2906 -0.5671,-0.8002 -0.3451,-1.2092 0.087,-0.1602 0.2328,-0.2669 0.4058,-0.3188 l 0.1162,-0.0349 0.0572,0.0199 c 0.2132,-0.1768 0.2134,-0.6781 0.0249,-0.9157 -0.1591,-0.5011 -0.7243,-0.8808 -1.0021,-1.2995 z"
   id="_295621376"
   style="fill:#2b2a29" />
   <path
   d="m 48.9322,25.7307 c -0.7992,-1.1069 1.8099,-1.9107 2.0081,-3.0853 0.0908,-0.538 0.5003,-1.2961 -0.6572,-2.9939 0.9362,1.8338 0.317,3.2806 -1.2779,4.2536 -0.5469,0.3336 -1.0263,0.7055 -1.0263,1.343 0,0.509 0.8866,0.6648 0.9533,0.4826 z m 8.3457,-3.5369 c 0.4607,-0.1392 0.9291,-0.3028 1.354,-0.3665 1.4072,-0.2111 3.2174,0.9828 4.5925,2.5721 -0.8582,-2.5012 -3.7067,-4.3773 -6.6633,-2.8124 -0.5862,0.3102 -0.3211,0.5774 -0.1264,0.6772 0.2349,0.1205 0.5046,0.032 0.8432,-0.0704 z m -5.7169,5.0156 c -0.2305,0 -0.9414,-0.2624 -0.9414,-0.54 0,-0.6269 1.3093,-0.2698 0.9414,0.54 z"
   id="_295621520"
   style="fill:#2b2a29" />
   <path
   d="m 51.4087,32.2608 c -0.1813,0.0013 -0.3586,-0.008 -0.527,-0.033 -0.3081,-0.0457 -0.6174,-0.1379 -0.9186,-0.2171 -0.3525,-0.0926 -0.7034,-0.2069 -1.0449,-0.334 -0.0899,-0.0335 -0.2361,-0.0381 -0.3328,-0.0487 -0.1505,-0.0165 -0.2926,-0.044 -0.4311,-0.1077 -0.0836,-0.0385 -0.1572,-0.0825 -0.2248,-0.1298 l 0.0336,1.1315 -4e-4,-2e-4 c 0.2793,0.1513 0.555,0.3092 0.8394,0.3839 0.1551,0.0408 0.3113,0.0851 0.4691,0.1138 0.773,0.1409 1.5259,-0.3465 2.1375,-0.7587 z"
   id="_295621568"
   style="fill:#fefefe" />
   <path
   d="m 47.2604,32.6027 c -0.3751,0.1126 -0.2225,0.5968 0.092,0.9016 0.2776,0.2688 0.6907,0.3671 0.8588,0.4035 0.7015,0.1521 1.518,0.1426 2.0301,-0.3086 0.1895,-0.1669 1.3137,-0.9097 1.3803,-1.0311 -1.618,1.0905 -2.1432,0.9018 -2.9145,0.6992 -0.5079,-0.1335 -0.9535,-0.4924 -1.4467,-0.6646 z m 5.5525,-0.8605 c -0.3817,-0.0478 -2.1564,0.4754 -3.0151,-0.5153 -0.2267,-0.2614 -0.3625,-0.4509 -0.6716,-0.5321 -0.8608,-0.2262 -0.6771,0.2038 -1.1034,-0.5265 -0.1731,-0.2964 -1.4005,-0.218 -1.5179,-0.6747 0.1368,0.4166 0.5341,0.789 1.0303,1.105 0.2524,0.1606 0.4928,0.452 0.7755,0.5821 0.2341,0.1078 0.5097,0.0607 0.7379,0.1457 0.3797,0.1413 0.7347,0.2506 1.0095,0.3228 1.0017,0.2632 1.0732,0.3291 2.7548,0.093 z"
   id="_295621664"
   style="fill:#e31e24" />
   <path
   d="m 71.0191,27.9009 c 0,0.9293 0.1688,-0.5174 -0.054,-1.6004 0,-2.0436 -0.1294,-4.3724 -1.9241,-5.6105 -0.9645,-0.6653 -1.6829,-0.5055 -2.7333,-0.6474 0,-1.4327 -0.8059,-2.4174 -2.0679,-2.9311 -0.2938,-0.1196 -1.1863,-0.1293 -1.6364,0.2338 0,-1.9567 -0.4884,-2.1158 -1.8342,-2.8232 0.1417,0.4265 0.0235,0.8764 0.0719,1.3127 -0.2357,-0.9464 -2.7797,-3.1317 -3.7763,-2.2118 -0.1751,-0.7033 -1.5694,-1.3358 -2.4815,-1.2048 0,-0.8794 -1.8238,-1.2408 -2.5355,-1.2408 -1.7034,0 -2.3889,1.9061 -4.118,1.9061 0.2402,-0.2402 0.417,-0.6186 0.5934,-0.9171 0.1839,-0.3108 0.4267,-0.5073 0.7193,-0.7373 -0.7998,-0.2461 -1.5877,-0.6084 -2.4815,-0.1618 -0.9591,0.4791 -1.8621,1.3846 -3.0211,1.3846 1.1594,-0.1929 1.5843,-1.8881 2.5895,-2.0679 -1.393,0 -2.997,0.3155 -4.0501,1.2193 -1.1419,0.9801 -2.0262,3.7276 -0.8411,4.9126 0.6634,0.6634 1.1509,1.1311 1.1509,2.1039 0.6037,-0.8803 0.5394,-1.6387 0.5394,-2.6793 0,-0.9237 0.036,-1.3514 0.6654,-2.3017 -0.3584,0.8148 -0.6628,1.7697 -0.2518,2.6433 0.3154,0.6707 0.6114,1.1209 0.6114,1.8702 0.28,-0.3188 0.4137,-1.0011 0.5215,-1.3666 0.434,-1.4704 1.04,-2.7937 2.1039,-3.2009 -0.3481,0.4061 -0.3729,1.996 -1.2407,2.3197 2.7463,0 2.8793,0.3675 4.6574,-2.3197 0.2795,-0.4225 0.9471,-0.9356 1.7263,-1.043 -0.9883,0.4939 -0.4139,2.5573 0.1259,3.2009 0.6827,0.8141 1.4022,1.2408 2.5175,1.2408 -0.4771,0 -0.8477,-1.2102 -0.9531,-1.6005 -0.1244,-0.4607 -0.0656,-1.3448 0.3237,-1.6364 0,1.9842 1.0248,2.729 2.4923,3.5785 0.7373,0.4265 3.2261,1.6544 4.1791,2.8412 0.2927,-0.3857 1.2223,-1.5115 0.1978,-3.6863 0.3384,0.6392 0.7348,1.2531 1.079,1.942 0.5227,1.0461 0.7733,2.2632 1.3127,3.3088 0.2236,0.4335 1.1428,1.3307 1.6543,1.3307 -0.0285,-0.3726 0.0566,-0.6526 0.3237,-0.9351 0.2059,-0.2178 0.3237,-0.7847 0.3237,-1.0969 0.3151,1.3877 0.0899,1.6422 0.0899,3.021 0,1.6047 0.8352,3.0865 1.4206,4.5675 0.4093,1.0355 0.6356,1.89 0.2353,2.7553 0.9749,-0.4257 1.8669,-0.7343 2.3901,-1.0829 0.7305,-0.4868 1.3847,-1.6684 1.3847,-2.5895 z m 0.2491,-4.4986 c 2.0614,0.7362 1.8215,3.1998 1.8215,4.918 0.462,-0.6575 0.5155,-1.1204 0.6982,-1.8518 0.5115,0.538 1.2066,1.6327 1.4876,2.3679 0.3985,1.0426 0.4664,2.2159 0.2184,3.2931 -0.3443,1.4952 -2.3812,3.8669 -3.8535,4.5004 -1.5749,0.6779 -3.1347,0.765 -3.1347,2.8318 -0.6214,-0.4025 -0.7286,-1.1869 -0.2733,-2.0036 -1.6398,0.5229 -2.0635,2.4688 -3.4304,3.0357 0.1457,-0.4857 0.1389,-1.4301 0.1296,-2.4584 0.5908,-0.486 1.0742,-1.0622 1.3641,-1.7391 0.6417,0.4917 1.3279,0.5664 2.0956,-0.0423 0.393,-0.3117 0.6468,-0.6869 0.8654,-1.1323 0.1597,-0.3253 0.296,-0.693 0.4994,-0.9919 0.0845,-0.1241 0.1814,-0.2354 0.299,-0.3293 0.0968,-0.0774 0.4715,-0.1611 0.5997,-0.1974 0.3851,-0.1089 0.7368,-0.2518 1.037,-0.526 1.4798,-1.3518 1.6354,-3.1895 -0.569,-3.7548 l -0.0745,-0.0999 c 0.1196,-0.2693 0.2097,-0.547 0.2617,-0.8173 0.1234,-0.1799 0.1078,-0.4957 0.111,-0.673 0.0063,-0.3575 -0.0097,-0.7231 -0.053,-1.078 -0.0158,-0.1298 -0.0356,-0.2594 -0.061,-0.3878 -7e-4,-0.9177 -0.0306,-1.892 -0.2197,-2.8089 l 0.1809,-0.0551 z"
   id="_295617872"
   style="fill:#a75f4a" />
   <path
   d="m 50.9464,40.982 c -1.061,-0.1141 -1.6898,1.1989 -1.5524,1.65 0.1407,0.4622 0.6838,0.948 1.4565,1.4135 1.0505,0.6326 2.5512,1.3822 4.0354,1.9327 l 0,-1.2419 c 0,-1.0711 -1.1204,-1.9275 -2.0131,-2.3084 -0.8947,-0.3817 -1.7281,-0.7123 -1.9262,-1.4459 l -2e-4,0 z m 4.1752,5.082 c 0.655,0.2337 1.3018,0.4251 1.9001,0.5471 1.3843,0.2822 2.4788,0.009 2.9348,-0.2475 0.6787,-0.3819 2.6986,-1.4015 3.3748,-2.4128 0.2623,-0.3921 -0.0731,-0.6313 -0.2867,-0.9799 -0.1301,-0.2124 -0.2451,-0.4529 -0.4597,-0.6639 -0.9808,1.0705 -2.9557,1.8522 -4.294,1.8522 -0.7002,0 -2.4399,-0.1613 -2.7408,0.6909 l -0.4285,1.2139 z"
   id="_295616000"
   style="fill:#e31e24" />
   <path
   d="m 79.0481,33.5989 c -1.6533,-1.1809 -2.4949,-2.0812 -2.4949,-4.1988 0,-0.4791 -0.2427,-1.2169 -0.6177,-1.9431 l 10e-5,0 c 0.369,-0.4999 0.2946,-0.916 -0.1572,-1.2797 0.3591,0.3945 0.2115,0.6858 -0.0235,0.9489 -0.2112,-0.3663 -0.4525,-0.7188 -0.7094,-1.0211 0.7907,-1.0289 2.6639,-0.2243 2.6639,1.3781 1.1152,-0.0902 2.1755,0.9425 2.328,2.0334 0,-1.0914 -0.3932,-2.2198 -1.5978,-2.5202 0.1592,-0.6053 0.4144,-0.8404 0.6998,-0.9737 0,-0.9582 -0.0355,-1.5451 0.5781,-2.2515 -0.8419,-0.0308 -1.6302,-2.5273 0.0609,-2.3428 0.066,0.8609 0.7648,1.6928 1.0345,2.1602 0,0.501 -0.1522,0.817 -0.1522,1.3388 0,0.1655 -0.0357,0.5379 -0.0044,0.7912 0.0113,0.0916 -0.0571,0.1567 -0.2615,0.2018 0.5367,-0.0483 1.1213,0.1938 1.5134,0.3458 -0.424,-0.4616 -0.4919,-0.5617 -0.5781,-0.8216 l 0,-1.0953 c 0,-0.2598 0.0609,-0.4798 0.0609,-0.7302 -0.3286,-0.7439 -1.9356,-2.5858 -0.2114,-2.8341 0.4752,0.5639 1.1702,1.3361 1.4453,1.7031 -0.2349,0.408 -0.0438,1.6083 0.5312,2.1759 -0.2424,0.7758 -0.4568,1.0171 -0.4568,1.8456 -0.1746,0.0348 -0.4252,0.0912 -0.6085,0.0912 0.2445,-0.0348 1.5243,0.2779 1.6126,0.3956 -0.7111,-0.64 -0.2914,-1.6129 -0.0305,-2.4037 -0.3164,-0.5274 -0.8611,-1.3141 -0.6534,-1.9787 0.1609,-0.5154 0.5803,-1.1048 0.9763,-1.0619 0.3449,0.366 0.396,0.7253 0.6482,1.1327 0.4344,0.7021 0.672,1.4171 0.672,2.273 -1.2711,-0.3688 -2.3689,0.5636 -1.4301,1.6735 0.6285,0.7427 0.6442,1.229 0.7303,2.069 0.0039,0.0393 0,0.0818 0,0.1217 -0.5572,0.2516 -0.7964,0.4348 -1.0345,0.9736 -0.1682,0.3803 -0.246,0.7407 -0.3652,1.2171 0.2198,-0.5954 0.5438,-1.174 0.9433,-1.3996 0.3503,-0.198 0.6511,-0.213 1.0953,-0.213 -0.2837,-0.7859 -0.1217,-1.493 -0.1217,-2.282 -0.9683,-0.6225 -1.2695,-1.3821 -0.3614,-1.8082 0.1703,0.0509 0.4424,0.3276 0.6961,0.4999 1.9689,1.3367 1.8033,3.9067 0.8824,5.781 -0.3898,0.793 -1.4658,2.7234 -2.2216,3.8472 -0.1927,0.2864 -0.6223,0.746 -0.7567,0.8955 -1.2995,-1.0205 -3.041,-1.6574 -5.0847,-2.2478 l 0.0608,-0.5172 1.5518,0.5781 -0.852,-0.5477 z"
   id="_295616096"
   style="fill:#fcd5a6" />
   <path
   d="m 75.0846,37.2852 c 0.2603,-4.4262 5.0444,-2.2529 8.0368,-0.5213 4.7064,2.7238 6.9574,8.2955 5.217,11.7496 -0.3637,-2.2307 -1.3188,-4.347 -2.73,-6.2966 -0.1898,-0.2622 -0.8187,-0.7828 -0.8807,-0.9688 1.4288,2.5401 4.211,7.3731 2.4218,10.3918 -1.8884,-6.3522 -6.6607,-12.1531 -13.7822,-12.1531 0,-1.5661 0.5253,-1.7172 1.9815,-1.7172 2.3948,0 2.7694,0.6152 4.7555,1.2769 -1.8649,-1.2823 -2.5531,-1.6929 -5.0197,-1.7613 z"
   id="_295616720"
   style="fill:#e31e24" />
   <path
   d="M 46.8155,36.7311 C 35.4322,34.1866 18.5749,13.1115 37.1843,9.0655 48.5947,6.5846 55.8524,9.0204 65.4322,14.4486 c 0.812,0.4601 10.6491,7.7718 13.3651,11.2704 l 0,0.0013 0,0.0342 0,0.0343 0,0.0346 c -0.3758,0.2496 -0.5692,0.6333 -0.6883,1.086 l -0.0621,0.236 c -0.0069,-6e-4 -0.0138,-0.0013 -0.0206,-0.0018 -0.0821,-0.5516 -0.3642,-1.0501 -0.8138,-1.4014 -0.466,-0.3641 -1.1004,-0.5451 -1.6788,-0.3719 -0.3057,0.0915 -0.565,0.2737 -0.7593,0.5264 l -0.1684,0.2192 0.179,0.2106 c 0.5833,0.6865 1.4263,2.1781 1.4263,3.0736 l 5e-4,0.0866 0,0.0015 c 6e-4,0.0568 0.0018,0.1128 0.0036,0.168 l 1e-4,0.0045 0.003,0.0775 10e-5,9e-4 2e-4,0.006 0.0039,0.0758 4e-4,0.0073 c 0.0043,0.0771 0.01,0.1526 0.0168,0.2265 l 4e-4,0.0047 10e-5,0.0014 c 0.0097,0.1032 0.0217,0.2035 0.0361,0.3012 l 1e-4,8e-4 0.0112,0.0722 4e-4,0.0022 -0.3081,0.3077 -4e-4,-0.0243 -2e-4,-0.0082 -7e-4,-0.0325 -4e-4,-0.0149 -6e-4,-0.0176 -0.0011,-0.0325 -2e-4,-0.0054 -0.0011,-0.0271 -0.0012,-0.0285 -2e-4,-0.004 -0.0017,-0.0325 -0.001,-0.019 -7e-4,-0.0134 -0.002,-0.0325 -6e-4,-0.0096 -0.0016,-0.0228 -0.0023,-0.0325 0,-10e-5 -0.0025,-0.0323 -0.0018,-0.0232 -9e-4,-0.0092 -0.0028,-0.0324 -0.0012,-0.0138 -0.0018,-0.0186 -0.0031,-0.0323 -4e-4,-0.0044 -0.003,-0.028 -0.0029,-0.0272 -6e-4,-0.0051 -0.0037,-0.0323 -0.0034,-0.029 -4e-4,-0.0032 -0.0041,-0.0323 -0.0011,-0.0085 -0.0031,-0.0237 -0.0043,-0.0313 -1e-4,-9e-4 -0.0046,-0.0322 -3e-4,-0.0025 -0.0044,-0.0297 -0.0048,-0.0321 -0.002,-0.0126 -1e-4,-5e-4 -0.0083,-0.051 -5e-4,-0.0033 -4e-4,-0.0021 -0.0078,-0.0456 -0.0012,-0.007 -0.0011,-0.0061 -0.0057,-0.0319 -0.0031,-0.0166 -0.0029,-0.0154 -0.0061,-0.0319 -0.0014,-0.0072 -0.0048,-0.0247 -0.0061,-0.0298 -4e-4,-0.0019 -0.0066,-0.0318 -0.0044,-0.0206 -0.0024,-0.0112 -0.0069,-0.0316 -0.0026,-0.0114 -0.0046,-0.0203 -0.0073,-0.0316 -5e-4,-0.0022 -0.007,-0.0294 -0.0059,-0.0244 -0.0018,-0.0071 -0.0012,-0.0049 -0.0096,-0.0385 -8e-4,-0.0033 -0.0042,-0.0162 -0.0082,-0.0314 -0.0015,-0.0061 -0.0068,-0.0252 -0.0077,-0.0283 -8e-4,-0.003 -0.0087,-0.0312 -0.0054,-0.0192 -0.0035,-0.012 -0.009,-0.0311 -0.003,-0.0101 -0.0014,-0.0048 -0.0116,-0.0384 -0.0026,-0.0087 -3e-4,-0.0011 -0.0028,-0.0091 -0.0124,-0.0397 -0.0013,-0.0041 -0.0025,-0.0079 -0.0099,-0.0309 -0.0045,-0.0138 -0.0056,-0.0169 -0.0102,-0.0307 -0.0017,-0.005 -0.0024,-0.0072 -0.0139,-0.0404 -0.0017,-0.0047 -0.0013,-0.0039 -0.0108,-0.0306 -0.0063,-0.0176 -0.0047,-0.0128 -0.011,-0.0304 -0.0033,-0.0088 -0.0195,-0.0517 c -0.2956,-0.7735 -0.9892,-1.8821 -1.5591,-2.4815 -0.3379,-0.3554 -0.6999,-0.6821 -0.8421,-1.1709 -0.169,-0.581 -0.4538,-1.1011 -0.9309,-1.4934 -1.0126,-0.8329 -1.0318,-0.058 -1.5065,-1.2246 -0.3072,-0.7548 -0.7837,-1.4267 -1.5211,-1.9354 -0.95,-0.6554 -1.6147,-0.5722 -2.5971,-0.6714 -0.107,-1.3943 -0.9517,-2.4061 -2.2694,-2.9423 -0.371,-0.151 -0.9585,-0.1326 -1.436,0.0146 -0.0327,-0.5772 -0.1455,-1.1705 -0.5179,-1.6111 -0.3676,-0.4347 -0.9889,-0.7173 -1.4865,-0.9789 -0.9641,-0.5068 -0.9447,-0.0993 -1.7638,-0.647 -0.616,-0.4118 -1.2747,-0.6872 -1.9547,-0.4323 -0.4597,-0.6576 -1.5526,-1.0641 -2.3531,-1.0786 -0.3565,-0.8872 -2.0132,-1.2261 -2.8088,-1.2261 -1.2661,0 -1.5167,0.6325 -2.7047,0.2669 -0.9245,-0.2845 -2.0961,-0.8603 -3.0137,-0.8603 -1.4556,0 -3.1423,0.3315 -4.2728,1.3018 -1.2812,1.0997 -2.2065,4.0674 -0.8602,5.4138 0.5755,0.5754 1.0508,0.9943 1.0508,1.8621 l 0,1.1031 0.6238,-0.9097 1.0567,3.4043 c -0.6545,1.1768 -1.4806,2.5844 -1.6888,3.9251 -0.1393,0.8971 -0.1945,1.9145 0.0599,2.7959 0.2211,0.766 0.702,1.6094 1.1088,2.2935 0.5595,0.9408 1.1703,1.8569 1.7799,2.7659 0.2573,0.3835 0.5156,0.7664 0.7729,1.1501 l 0.0141,0.0212 0.0041,0.006 0.0101,0.0152 0.008,0.0121 0.0061,0.0091 0.012,0.0181 0.002,0.0031 0.0141,0.0213 0.0019,0.003 0.012,0.0183 0.006,0.0091 0.008,0.0122 0.0099,0.0152 0.0039,0.0061 0.0139,0.0214 0.0138,0.0214 0.0039,0.006 0.0099,0.0154 0.0078,0.0121 0.006,0.0093 0.0117,0.0182 0.002,0.0032 0.0137,0.0214 0.0019,0.003 0.0118,0.0184 0.0058,0.0091 0.0078,0.0124 0.0097,0.0152 0.0039,0.0063 0.0135,0.0214 1e-4,0 0.0135,0.0216 0.0038,0.006 0.0097,0.0155 0.0077,0.0122 0.0058,0.0093 0.0115,0.0184 0.002,0.0032 0.0134,0.0215 0.0019,0.003 0.0115,0.0186 0.0057,0.0091 0.0077,0.0125 0.0095,0.0153 0.0038,0.0063 0.0133,0.0214 1e-4,2e-4 0.0133,0.0217 0.0037,0.006 0.0096,0.0156 0.0075,0.0122 0.0058,0.0094 0.0112,0.0184 0.002,0.0033 0.0133,0.0217 0.0018,0.0029 0.0114,0.0188 0.0055,0.009 0.0077,0.0126 0.0093,0.0153 0.0039,0.0065 0.013,0.0214 2e-4,2e-4 0.0131,0.0218 0.0036,0.0059 0.0095,0.0158 0.0074,0.0121 0.0057,0.0096 0.0112,0.0184 0.002,0.0034 0.0131,0.0217 0.0017,0.0029 0.0114,0.0188 0.0054,0.0091 0.0077,0.0127 0.0091,0.0153 0.0039,0.0065 0.013,0.0215 10e-5,2e-4 0.0131,0.0218 0.0035,0.0059 0.0095,0.0159 0.0073,0.0121 0.0058,0.0097 0.011,0.0183 0.002,0.0034 0.013,0.0219 0.0017,0.0028 0.0114,0.019 0.0054,0.0089 0.0076,0.0128 0.0091,0.0153 0.0039,0.0065 0.0128,0.0215 2e-4,3e-4 0.0131,0.0218 0.0035,0.0059 0.0095,0.0159 0.0072,0.0121 0.0058,0.0097 0.011,0.0183 0.002,0.0035 0.0131,0.0218 0.0016,0.0028 0.0115,0.019 0.0053,0.009 0.0076,0.0128 0.0091,0.0152 0.004,0.0066 0.0128,0.0214 3e-4,4e-4 0.013,0.0218 z"
   id="_295616360"
   style="fill:#fecc00" />
   <path
   d="m 32.5594,10.3979 c 1.3273,-1.136 3.2341,-2.0371 5.8386,-2.6034 11.4104,-2.4809 18.6681,-0.0451 28.2479,5.3831 0.6988,0.396 8.0833,5.8675 11.8595,9.6152 0.0123,0.0487 0.0263,0.0976 0.0421,0.1465 0.1084,0.3356 0.327,0.7391 0.637,0.9751 -0.2613,0.4158 -0.3467,0.817 -0.3743,1.2712 C 78.5444,24.869 78.26,24.565 77.9877,24.2822 76.5076,22.7451 74.8143,21.3018 73.1699,19.9423 71.5733,18.6223 69.941,17.3383 68.2879,16.0898 67.7047,15.6494 67.118,15.2122 66.5249,14.7852 66.2398,14.5799 65.9052,14.3237 65.6007,14.1512 61.3756,11.7571 56.958,9.5547 52.1911,8.4846 47.1008,7.3419 42.1813,7.6292 37.1116,8.7314 c -1.555,0.3381 -3.1581,0.8598 -4.5522,1.6665 z"
   id="_295616432"
   style="fill:#fff383" />
   <path
   d="m 32.5594,10.3979 c 0.2753,-0.2356 0.5756,-0.4611 0.9018,-0.6756 1.1707,-0.6754 2.634,-1.2246 4.4285,-1.6147 11.4104,-2.4809 18.6681,-0.0451 28.2479,5.3831 0.0922,0.0523 1.1508,0.5138 2.5416,1.1385 2.6272,1.9592 7.121,5.4831 9.8079,8.1456 l 0.0231,0.0366 c 0.0111,0.0426 0.0235,0.0852 0.0373,0.1279 0.1084,0.3356 0.327,0.7391 0.637,0.9751 -0.2613,0.4158 -0.3467,0.817 -0.3743,1.2712 C 78.5444,24.869 78.26,24.565 77.9877,24.2822 76.5076,22.7451 74.8143,21.3018 73.1699,19.9423 71.5733,18.6223 69.941,17.3383 68.2879,16.0898 67.7047,15.6494 67.118,15.2122 66.5249,14.7852 66.2398,14.5799 65.9052,14.3237 65.6007,14.1512 61.3756,11.7571 56.958,9.5547 52.1911,8.4846 47.1008,7.3419 42.1813,7.6292 37.1116,8.7314 c -1.555,0.3381 -3.1581,0.8598 -4.5522,1.6665 z"
   id="_295610192"
   style="fill:#fecc00" />
   <path
   d="m 42.2389,26.3426 c 0.0726,-0.9083 -1.8468,-3.4287 -2.4004,-4.4171 -2.6359,-4.7069 0.9765,-8.6921 -6.1536,-8.6921 -3.8303,0 -4.1908,3.239 -4.6796,5.4048 -0.6977,-4.3119 1.3524,-8.0885 8.179,-9.5727 11.4104,-2.4809 18.6681,-0.0451 28.2479,5.3831 0.812,0.4601 10.6491,7.7718 13.3651,11.2704 l 0,0.0013 0,0.0342 0,0.0343 0,0.0346 c -0.3758,0.2496 -0.5692,0.6333 -0.6883,1.086 l -0.0621,0.236 c -0.0069,-6e-4 -0.0138,-0.0013 -0.0206,-0.0018 -0.0821,-0.5516 -0.3642,-1.0501 -0.8138,-1.4014 -0.466,-0.3641 -1.1004,-0.5451 -1.6788,-0.3719 -0.3057,0.0915 -0.565,0.2737 -0.7593,0.5264 l -0.1684,0.2192 0.179,0.2106 c 0.5833,0.6865 1.4263,2.1781 1.4263,3.0736 l 5e-4,0.0866 0,0.0015 c 6e-4,0.0568 0.0018,0.1128 0.0036,0.168 l 1e-4,0.0045 0.003,0.0775 10e-5,9e-4 2e-4,0.006 0.0039,0.0758 4e-4,0.0073 c 0.0043,0.0771 0.01,0.1526 0.0168,0.2265 l 4e-4,0.0047 10e-5,0.0014 c 0.0097,0.1032 0.0217,0.2035 0.0361,0.3012 l 1e-4,8e-4 0.0112,0.0722 4e-4,0.0022 0.0826,0.4006 c 0.2553,1.0108 0.8156,1.718 1.6694,2.4237 -0.0975,0.8289 -0.0497,1.0021 -0.9464,1.0953 -0.3985,0.0415 -0.7678,0.1502 -1.0915,0.344 -0.7238,0.4334 -1.0583,1.1809 -1.1928,1.9711 -1.2758,0.3962 -3.5495,0.9848 -4.7535,0.9366 0.0988,-0.0446 0.1982,-0.0856 0.2954,-0.1238 0.4732,-0.1865 0.9558,-0.3392 1.4242,-0.5407 1.5392,-0.6625 3.6741,-3.0989 4.0515,-4.7378 0.0728,-0.3165 0.1199,-0.64 0.1409,-0.9659 l 0.0121,-0.4954 -4e-4,-0.0243 -2e-4,-0.0082 -7e-4,-0.0325 -4e-4,-0.0149 -6e-4,-0.0176 -0.0011,-0.0325 -2e-4,-0.0054 -0.0011,-0.0271 -0.0012,-0.0285 -2e-4,-0.004 -0.0017,-0.0325 -0.001,-0.019 -7e-4,-0.0134 -0.002,-0.0325 -6e-4,-0.0096 -0.0016,-0.0228 -0.0023,-0.0325 0,-10e-5 -0.0025,-0.0323 -0.0018,-0.0232 -9e-4,-0.0092 -0.0028,-0.0324 -0.0012,-0.0138 -0.0018,-0.0186 -0.0031,-0.0323 -4e-4,-0.0044 -0.003,-0.028 -0.0029,-0.0272 -6e-4,-0.0051 -0.0037,-0.0323 -0.0034,-0.029 -4e-4,-0.0032 -0.0041,-0.0323 -0.0011,-0.0085 -0.0031,-0.0237 -0.0043,-0.0313 -1e-4,-9e-4 -0.0046,-0.0322 -3e-4,-0.0025 -0.0044,-0.0297 -0.0048,-0.0321 -0.002,-0.0126 -1e-4,-5e-4 -0.0083,-0.051 -5e-4,-0.0033 -4e-4,-0.0021 -0.0078,-0.0456 -0.0012,-0.007 -0.0011,-0.0061 -0.0057,-0.0319 -0.0031,-0.0166 -0.0029,-0.0154 -0.0061,-0.0319 -0.0014,-0.0072 -0.0048,-0.0247 -0.0061,-0.0298 -4e-4,-0.0019 -0.0066,-0.0318 -0.0044,-0.0206 -0.0024,-0.0112 -0.0069,-0.0316 -0.0026,-0.0114 -0.0046,-0.0203 -0.0073,-0.0316 -5e-4,-0.0022 -0.007,-0.0294 -0.0059,-0.0244 -0.0018,-0.0071 -0.0012,-0.0049 -0.0096,-0.0385 -8e-4,-0.0033 -0.0042,-0.0162 -0.0082,-0.0314 -0.0015,-0.0061 -0.0068,-0.0252 -0.0077,-0.0283 -8e-4,-0.003 -0.0087,-0.0312 -0.0054,-0.0192 -0.0035,-0.012 -0.009,-0.0311 -0.003,-0.0101 -0.0014,-0.0048 -0.0116,-0.0384 -0.0026,-0.0087 -3e-4,-0.0011 -0.0028,-0.0091 -0.0124,-0.0397 -0.0013,-0.0041 -0.0025,-0.0079 -0.0099,-0.0309 -0.0045,-0.0138 -0.0056,-0.0169 -0.0102,-0.0307 -0.0017,-0.005 -0.0024,-0.0072 -0.0139,-0.0404 -0.0017,-0.0047 -0.0013,-0.0039 -0.0108,-0.0306 -0.0063,-0.0176 -0.0047,-0.0128 -0.011,-0.0304 -0.0033,-0.0088 -0.0195,-0.0517 c -0.2956,-0.7735 -0.9892,-1.8821 -1.5591,-2.4815 -0.3379,-0.3554 -0.6999,-0.6821 -0.8421,-1.1709 -0.169,-0.581 -0.4538,-1.1011 -0.9309,-1.4934 -1.0126,-0.8329 -1.0318,-0.058 -1.5065,-1.2246 -0.3072,-0.7548 -0.7837,-1.4267 -1.5211,-1.9354 -0.95,-0.6554 -1.6147,-0.5722 -2.5971,-0.6714 -0.107,-1.3943 -0.9517,-2.4061 -2.2694,-2.9423 -0.371,-0.151 -0.9585,-0.1326 -1.436,0.0146 -0.0327,-0.5772 -0.1455,-1.1705 -0.5179,-1.6111 -0.3676,-0.4347 -0.9889,-0.7173 -1.4865,-0.9789 -0.9641,-0.5068 -0.9447,-0.0993 -1.7638,-0.647 -0.616,-0.4118 -1.2747,-0.6872 -1.9547,-0.4323 -0.4597,-0.6576 -1.5526,-1.0641 -2.3531,-1.0786 -0.3565,-0.8872 -2.0132,-1.2261 -2.8088,-1.2261 -1.2661,0 -1.5167,0.6325 -2.7047,0.2669 -0.9245,-0.2845 -2.0961,-0.8603 -3.0137,-0.8603 -1.4556,0 -3.1423,0.3315 -4.2728,1.3018 -1.2812,1.0997 -2.2065,4.0674 -0.8602,5.4138 0.5755,0.5754 1.0508,0.9943 1.0508,1.8621 l 0,1.1031 0.6238,-0.9097 c 0.9405,-1.3714 1.5732,2.4756 1.0567,3.4043 -0.6545,1.1768 -1.4806,2.5844 -1.6888,3.9251 z"
   id="_295617296"
   style="fill:#af752f" />
   <path
   d="m 49.4175,6.5976 c 3.5386,-1.3838 6.366,-4.5117 10.0364,-5.6757 7.279,-2.3085 18.3482,2.5188 17.0041,10.1356 l -0.5569,3.1558 c -0.0539,0.3057 -0.297,1.4293 -0.297,1.4108 -0.557,-0.6962 -1.918,-2.153 -2.6732,-2.636 -1.026,-0.6562 -3.4813,-2.0027 -3.4156,-4.0468 -0.2973,3.2923 3.1963,4.5338 4.5295,6.3116 1.0546,1.4064 1.2778,2.76 1.3245,4.2403 -0.3292,-0.2773 -0.6584,-0.5512 -0.9857,-0.8219 -1.5966,-1.32 -3.2289,-2.604 -4.882,-3.8525 -0.5832,-0.4404 -1.1699,-0.8776 -1.763,-1.3046 -0.2851,-0.2053 -0.6197,-0.4615 -0.9242,-0.634 C 62.5893,10.4861 58.1717,8.2837 53.4048,7.2136 52.0658,6.913 50.7387,6.7115 49.4175,6.5976 z"
   id="_295609040"
   style="fill:#fecc00" />
   <path
   d="M 49.4175,6.5976 C 52.9561,5.2138 55.7835,2.0859 59.4539,0.9219 65.5358,-1.007 74.2621,2.0466 76.1843,7.546 74.5919,5.3361 72.1892,4.2064 70.3255,3.6122 67.9674,2.8603 61.5312,2.6081 59.4459,4.1562 58.25,5.044 57.2483,6.9043 56.1824,7.9708 55.2693,7.6794 54.3438,7.4244 53.4048,7.2136 52.0658,6.913 50.7387,6.7115 49.4175,6.5976 z"
   id="_295609712"
   style="fill:#fff383" />
   <path
   d="m 38.1378,57.8729 c 2.4608,0.3879 1.9561,6.2275 1.4306,7.7368 -0.316,0.9079 -0.5334,1.33 -1.2311,1.4706 -0.6156,0.124 -1.0208,0.0822 -1.4841,0.3395 -0.8267,0.4593 -1.6654,-0.1766 -2.4232,0.3504 -0.8494,0.5907 -1.2478,1.1133 -2.1897,0.4963 -1.5946,-1.0445 0.5073,-3.5045 0.5073,-1.114 0.0683,-0.388 0.2691,-0.344 0.6021,-0.5501 0.1798,-0.1113 0.3016,-0.2264 0.4963,-0.3212 0.0826,-0.0402 0.4554,-0.1982 0.4672,-0.2336 -0.4222,0.1408 -0.1362,0.0101 -0.4088,-0.0875 -0.6645,-0.2381 -0.4379,-2.6748 -0.4379,-3.4159 0.6662,-1.1366 2.995,-4.9355 4.6713,-4.6713 z"
   id="_295617848"
   style="fill:#fcd5a6" />
   <path
   d="m 61.5335,64.3763 c 5.183,0 5.8193,7.2118 9.6322,10.1275 1.8818,1.439 5.0169,2.5584 5.5041,5.339 l -4.018,5.9995 C 72.0951,80.9546 62.3818,78.8471 59.9373,73.0177 59.2177,71.3017 59.579,61.7894 57.2954,61.7894 c 4.9431,0.3535 3.0505,5.8916 5.1188,8.4763 -0.6914,-3.3949 0.1797,-3.8004 -0.8807,-5.8894 z"
   id="_295621448"
   style="fill:#00a0e3" />
   <path
   d="m 68.5366,70.6134 c 2.7651,1.193 7.4855,3.1989 11.6223,-2.6953 0.9967,2.424 2.2578,4.6276 3.9055,6.5092 -1.0295,3.7062 -4.0142,4.9246 -7.1813,4.8386 -0.4487,-1.4788 -1.6182,-2.4815 -2.8984,-3.3335 -0.8579,-0.571 -1.7954,-1.0762 -2.6114,-1.7001 -1.2002,-0.9179 -2.0817,-2.2998 -2.8367,-3.6189 z"
   id="_295621064"
   style="fill:#008dd2" />
   <path
   d="m 39.9697,59.3636 c 5.6005,-0.1058 12.2279,0.8963 16.8972,3.0751 0.9117,0.4253 1.3811,0.8064 1.6154,1.8783 0.1434,0.656 0.2475,1.3578 0.3208,1.9482 -0.6164,-0.6314 -1.1237,-0.9329 -2.2029,-1.1963 -2.0503,-0.5004 -5.8283,-1.1566 -7.5947,-2.2159 0.4162,1.4566 5.7005,2.1086 7.2159,2.6137 0.254,0.0846 0.9078,0.4588 1.5326,0.8749 1.0691,0.7122 1.1486,0.7451 1.2479,1.8825 -2.1531,-0.7111 -12.1993,-4.1458 -18.885,-3.4056 0.0439,-0.243 0.078,-0.4859 0.1064,-0.7127 0.0747,-0.5963 -0.0256,-1.2052 0.5759,-1.5544 0.562,-0.3263 1.9267,0.2633 2.5572,0.2633 0.7138,0 1.2057,-0.1485 1.8614,-0.2257 -1.7379,0 -2.954,-1.1142 -4.4008,-1.6097 -0.667,-0.2282 -0.5166,-0.1817 -0.6579,-0.8879 -0.0494,-0.2468 -0.1116,-0.492 -0.1896,-0.7276 l 2e-4,-2e-4 z"
   id="_295620680"
   style="fill:#00a0e3" />
   <path
   d="m 84.5393,46.6218 c 1.0694,1.718 1.8187,3.5555 2.394,5.4904 l 0.0208,0.0699 c 0.3318,1.345 -2.8328,4.9393 -6.4705,7.0072 -3.1658,1.7996 -6.7587,2.1131 -7.9529,2.446 -2.0064,0.5594 -6.8912,1.5973 -7.3395,3.909 -0.4849,-0.4968 -1.0888,-0.8325 -1.2024,-0.8968 L 63.9855,64.6456 63.982,64.6437 c 0.2567,-0.4388 0.5853,-0.832 0.9693,-1.216 0.6452,-0.6452 1.6041,-0.8614 2.2021,-1.6388 -1.3568,0.9169 -2.4348,1.3397 -2.9191,1.5364 -0.5769,0.2342 -1.2263,0.4858 -1.7637,0.7886 l -0.0048,-8e-4 c -0.1,-0.0183 -0.2018,-0.0324 -0.303,-0.0436 l -0.005,-6e-4 c 0.2257,-0.3198 0.4294,-0.6072 0.8475,-0.9997 0.6487,-0.6089 1.605,-1.224 2.3045,-1.5875 2.0252,-1.0527 2.6997,-3.2725 2.4582,-5.3261 0,4.063 -4.628,5.6226 -7.4772,6.6893 l -2e-4,-4e-4 -0.0148,-0.0185 -0.0151,-0.0187 -0.0018,-0.0022 -0.0135,-0.0163 c -0.4763,-0.5743 -1.0966,-0.9501 -1.8155,-1.1538 0.4083,-0.5071 1.1084,-0.7057 1.3519,-1.4041 0.1492,-0.4279 0.1333,-0.7004 0.1333,-1.0943 -0.1848,0.7294 -0.4121,1.3838 -0.8605,1.6537 -0.322,0.1938 -0.6175,0.3971 -1.0423,0.316 -0.4862,-0.0926 -0.4487,-0.3991 -0.2425,-0.7416 0.1444,-0.2399 0.9035,-1.3137 0.5333,-1.5928 -0.6234,2.1602 -2.3813,2.8015 -4.3172,2.1782 -0.0908,-0.0293 -0.182,-0.0582 -0.2732,-0.0866 -1.8256,-0.5694 -3.7258,-0.979 -5.5466,-1.2657 -0.8019,-0.1343 -1.7039,-0.3785 -2.1699,-1.0094 -0.4541,-0.6148 -0.8266,0.1335 -1.4244,0.1335 -0.5116,0 -0.5848,-0.6362 -0.4748,-0.994 0.1589,-0.5163 1.1508,-1.0132 1.647,-1.0683 -1.1232,0 -2.2256,-0.0045 -2.2256,1.3798 0,0.5428 0.118,0.7716 -0.4599,0.7716 -1.4291,0 -0.0205,-2.6855 -1.276,-2.6855 -0.6467,0 -0.708,0.7333 -0.5045,1.2463 0.2461,0.6205 0.4898,1.0875 0.6083,1.6535 -0.5074,-0.0117 -1.0164,-0.0148 -1.5281,-0.009 -0.698,0.0079 -0.6464,-0.2284 -0.5316,-0.8267 0.1286,-0.6695 0.0318,-1.2942 -0.1866,-1.8572 -0.4035,-1.0403 -0.1364,-1.3278 0.2584,-2.5771 0.8433,-2.6697 2.0093,-5.2674 3.3765,-7.8108 -1.9264,2.7685 -3.5685,5.6384 -4.7521,8.6721 0,1e-4 -0.5313,-0.5326 -0.6565,-0.6445 -0.0542,-0.5875 -0.2976,-1.1683 -0.2976,-1.8479 0,-1.142 0.0026,-2.9411 -1.1668,-3.6327 l 0.2642,1.1229 c 0,0.399 0.0051,0.7144 -0.1101,1.1008 -0.1768,0.5929 -0.2637,0.6292 -0.5064,0 -0.5551,-1.4385 -1.7055,-2.0397 -2.9942,-2.73 0.0266,0.0799 0.5998,0.5829 0.7265,0.7485 0.3172,0.4148 0.7475,0.9495 0.9027,1.4531 0.2152,0.6983 -0.5124,1.3598 -1.1703,0.9917 -1.066,-0.5964 -2.239,-1.2305 -4.8182,-0.7716 2.3106,0 3.8515,0.9588 5.7548,1.9283 -0.203,0.0294 -0.4198,0.0786 -0.6537,0.1499 -1.1241,0.3428 -2.0547,1.242 -2.8205,2.2165 -1.7632,2.2443 -2.9642,4.7379 -5.2195,6.6161 -1.0497,0.8742 -2.2331,1.6981 -3.3181,2.2425 -3.7313,-3.1586 -2.3543,-10.4314 0.1777,-13.7506 5.4011,-7.0807 7.7373,-2.4724 13.3706,-5.7434 2.246,-1.3041 6.154,-2.3433 8.8218,-2.3433 2.3727,0 3.1052,0.4457 4.2687,1.043 l 0,0 c 0.2246,0.6688 1.0232,1.2272 1.5962,1.5724 1.2479,0.7516 2.6445,1.4175 4.0127,1.9305 l -10e-4,0.0027 0.2001,0.0713 0.1214,0.045 0.2204,0.0818 0,-0.0062 c 0.5641,0.194 1.1427,0.3638 1.7257,0.4827 0.9385,0.1913 2.3069,0.2014 3.1707,-0.2845 0.3011,-0.1695 0.6213,-0.372 0.9542,-0.5906 -1.2236,1.715 -2.1452,3.5677 -2.9574,5.4703 1.1886,-2.1128 2.4667,-4.1029 4.0434,-5.6846 1.0544,-1.0577 1.5425,-1.609 2.787,-1.992 1.0419,-0.3205 2.4479,-0.1536 3.5849,-0.1536 0,0.5983 -0.0513,1.2261 -0.0513,1.8436 0,1.1228 0.5634,2.1139 0.5634,3.2264 0,-1.7591 -0.2805,-4.372 0.8194,-5.8382 0.6148,-0.8196 1.447,-2.1024 2.4464,-2.7368 0.7755,-0.4924 1.179,-0.4134 2.0569,-0.3367 l 0.0083,7e-4 c 0.2468,0.0201 0.4907,0.0478 0.7313,0.0823 1.7775,0.2555 3.446,0.9195 4.9287,1.9035 1.5829,1.0507 2.8318,2.4453 3.9352,3.9625 0.1923,0.2644 0.3803,0.5327 0.5648,0.8034 z"
   id="_295620296"
   style="fill:#fefefe" />
   <path
   d="m 25.3334,69.0444 c 3.235,-1.1683 5.2574,-3.8669 7.2034,-6.1462 1.9499,-2.2839 1.9764,-3.5804 4.8626,-5.4237 0.4378,-0.2796 0.9181,-0.7308 1.4852,-0.6657 0.0889,0.0102 -0.2049,0.4854 -0.3502,0.8531 0.1027,0.0372 0.2021,0.0835 0.2975,0.1392 0.2373,0.1384 0.4378,0.3259 0.607,0.5475 0.6642,-2.4356 -2.1943,-5.3073 -4.3117,-2.8634 -0.7268,0.8386 -1.3986,1.9862 -2.9353,2.93 2.1505,-1.9548 2.0987,-5.1072 5.2622,-4.3498 -0.4529,-0.3889 -0.8918,-0.8241 -1.4336,-1.161 -4.0108,-1.4624 -5.9853,4.5012 -8.117,6.8509 -1.1754,1.2957 -3.6768,3.4381 -5.8673,4.3691 -0.299,0.5186 0.0218,1.0786 0.9411,1.6803 0.3687,-0.0444 0.7812,-0.0524 1.3079,-0.0524 2.3815,0 4.3582,-2.1805 5.8631,-3.6853 -3.3278,4.5598 -5.4621,3.8463 -6.84,4.3894 -0.4756,0.4575 -0.4505,1.0378 -0.0188,1.7275 0.6689,1.0683 0.9006,1.2732 2.0439,0.8605 z"
   id="_295619912"
   style="fill:#e31e24" />
   <path
   d="m 65.8763,81.0594 c 0.1216,3.8081 0.0474,7.212 -3.3941,9.7655 -4.4215,3.2805 -8.3882,3.9879 -14.1045,4.3239 -7.1782,0.422 -9.9254,12.4447 -19.9183,7.7541 -3.4291,-1.6095 -3.0369,-3.6251 -4.8996,-5.6623 C 21.865,95.3871 13.646,94.117 17.317,83.595 19.488,77.3725 29.8303,72.481 36.7065,72.7154 c 5.042,0.1719 7.4611,0.5629 11.4011,2.3739 -4.2577,-3.1869 -9.3691,-3.6236 -13.4435,-3.2929 0.0457,-0.3134 -0.0114,-0.7294 0.0802,-1.0275 0.2314,-0.7519 0.6614,-2.3589 1.6041,-2.3589 0.4651,0 0.2595,1.1926 0.2595,1.6041 0,1.2615 0.7757,0.3018 0.9907,-0.2359 0.2943,-0.7356 0.4667,-2.1141 1.2069,-2.4894 0.0161,-0.0073 0.032,-0.0149 0.0476,-0.0227 l 5e-4,-2e-4 c 0.1495,-0.0744 0.2751,-0.1674 0.383,-0.2761 0.0123,-0.0123 0.0243,-0.025 0.0361,-0.0377 0.1807,-0.1597 0.9921,-0.7356 1.3072,-0.0217 0.46,1.0424 -0.9399,1.9733 0.2451,2.8881 1.6532,1.2763 -0.261,-3.9391 1.7328,-3.7983 1.0334,0.0731 -0.0584,3.0877 0.8402,3.4132 1.6323,0.5916 0.4309,-2.0159 1.4003,-3.1156 1.1705,-1.328 3.4537,-0.255 2.258,1.6803 -1.3413,2.1711 0.4161,1.9916 0.6476,1.2428 0.2186,-0.7068 0.3501,-1.1598 0.3501,-1.9254 0,-2.0951 2.1046,-0.6108 1.6278,1.2428 -0.1023,0.3979 -0.9139,2.848 -0.5426,2.9406 1.0825,0.2699 0.8927,-1.6498 0.8927,-2.2055 0,-1.0137 -0.2326,-1.9858 0.3016,-2.6985 0.3935,-0.5252 0.6721,-0.3112 1.1919,-0.0208 0.1219,0.068 0.2441,0.1445 0.3674,0.231 4.524,3.1744 1.6877,11.3291 -1.3732,14.2139 -0.3,0.2828 -2.6552,1.7736 -0.9027,1.9727 5.3302,0 5.9664,-11.9651 3.9021,-16.0847 l 0.6273,0.3396 c 4.4571,4.0855 2.5823,10.3265 -0.2609,14.3213 -1.1664,1.639 1.2189,0.8038 1.7395,-0.8987 0.9218,-3.015 3.5386,-6.6927 1.6234,-9.8858 -0.1559,-0.2601 -1.5133,-2.3192 -0.4928,-2.3192 3.3087,0 2.4385,8.9953 1.9713,10.6685 -0.5826,2.0868 1.0437,0.7537 1.0437,-1.3916 0,-0.5136 -0.0752,-1.38 -0.0076,-2.1099 0.091,-0.9827 0.4834,-1.2081 1.0481,-0.4837 0.6973,0.8945 1.546,1.6865 2.4401,2.4032 1.3406,1.0746 2.5666,1.6646 2.6252,3.5087 z M 33.5114,71.9121 c -0.3025,0.0361 -0.5976,0.0757 -0.8842,0.118 0,-1.2142 0.2233,-2.2614 0.6252,-3.167 0.3757,-0.0815 0.7126,-0.3359 1.1112,-0.6255 -0.6018,1.1524 -1.3439,2.9462 -0.8522,3.6745 z m -1.6126,17.3086 c 0.7631,1.7806 -2.5887,1.933 -3.5842,1.933 -5.0285,0 -7.918,-4.8741 -6.4033,-9.4236 -0.7359,4.1048 2.917,9.8243 8.1753,7.8933 0.5325,-0.1956 1.0713,-0.3625 1.8122,-0.4027 z m -13.612,-1.5706 c -0.9262,5.6832 6.087,7.0073 10.4305,7.0073 2.7078,0 4.6733,-0.7403 6.5621,-1.8473 2.3645,-1.3859 6.2541,-5.5225 8.8622,-5.5225 1.4702,0 0.492,1.2919 2.4566,0.886 1.869,-0.3862 -1.8279,-5.1426 -5.7992,-2.0539 -3.6956,2.8742 -6.8745,7.692 -12.1622,7.692 -5.3295,0 -10.7124,-1.7387 -10.35,-6.1616 z m 8.0545,10.1083 c 7.329,6.4667 13.2531,-2.8618 19.4917,-4.1078 -3.2896,0.5479 -6.4827,2.8744 -9.5654,4.1063 -3.0202,1.207 -6.9251,1.21 -9.9263,0.0015 z M 61.9323,80.906 c 0,7.1017 -8.0683,10.5935 -14.0604,10.5935 -5.5757,0 -8.321,3.7238 -13.4184,3.7238 4.044,0.2524 5.3238,-1.0517 8.86,-2.1829 1.7974,-0.575 3.5421,-0.7811 5.2781,-0.9886 6.5596,-0.7846 13.6352,-3.1485 13.3407,-11.1458 z"
   id="_295619528"
   style="fill:#e31e24" />
   <path
   d="m 26.2672,77.2854 c 2.9675,-2.2619 8.3816,-2.7918 12.0512,-2.7918 2.286,0 11.8357,2.2959 9.2052,2.6459 -2.8902,0.3846 -7.6834,0.2978 -8.6353,0.2978 -2.4741,0 -6.2531,0.4611 -6.2531,3.4541 0,9.3295 -13.5635,1.8788 -6.368,-3.606 z"
   id="_295619144"
   style="fill:#f2b7b0" />
   <path
   d="m 41.5107,102.636 c 2.3209,2.4536 6.0502,7.3067 8.059,8.3946 6.3935,3.463 19.0952,0.8498 21.4174,-6.9998 2.7823,-9.405 -0.9251,-8.9847 -5.8525,-11.931 -0.8125,-0.4857 -1.7316,-0.7233 -2.5328,-0.0872 -1.2052,0.9568 -3.0435,1.8836 -3.0435,3.6584 0,1.3384 2.8979,0.5689 3.4578,0.4782 -6.0185,6.0185 -14.7857,-2.2913 -20.7718,2.6982 -0.5176,0.4769 -1.4723,3.0076 -0.7336,3.7886 z m 3.5542,1.418 c 2.7874,3.6703 8.7055,6.9368 14.7502,6.1206 2.1538,-0.2909 5.7784,-1.4504 8.5155,-5.1702 -6.4476,5.1567 -15.9153,6.0119 -23.2657,-0.9504 z m 22.9004,-1.549 c 2.7998,-1.9758 1.4077,-6.2974 -3.8736,-3.3845 -3.5078,1.9347 -10.0437,5.5579 -13.8429,1.9328 1.1988,1.9938 6.5154,2.8158 9.3379,1.6871 1.0714,-0.4285 3.8972,-2.5719 4.9752,-2.1573 0.5513,0.212 0.6001,0.6087 0.4808,1.062 -0.6489,2.464 0.7848,2.3686 2.9226,0.8599 z"
   id="_295618760"
   style="fill:#e31e24" />
   <path
   d="m 71.9103,101.851 c 1.1978,0.4101 2.1832,1.6761 2.1832,2.9026 0.4948,-0.4809 0.389,-0.6129 0.389,-1.3228 1.5783,0.3945 2.5731,0.8575 3.8905,1.5951 0.3766,0.2109 1.3228,1.2014 1.3228,1.634 -1.6522,0.8261 -2.6066,4.3009 -2.6066,6.0691 0,4.2365 -4.391,10.155 -9.1241,8.5791 -0.1216,-0.2052 -0.0304,-0.1297 -0.0886,-0.6619 2.1207,-0.2664 1.4883,-1.8295 3.2313,-3.0052 -0.3477,-0.5746 -0.5446,-0.8508 -0.5446,-1.5562 0.3748,-1.3494 0.03,-1.0015 -0.0878,-2.4221 -0.0541,-0.6529 -0.2845,-1.4143 0.0778,-2.1008 0.2535,-0.4804 0.8948,-1.0038 0.8948,-1.5951 -0.2101,0.1244 -0.6087,0.817 -1.4395,0.817 l -2.0958,-1.7058 -1e-4,-2e-4 c 0.9609,-0.7909 1.7975,-1.7153 2.4421,-2.7821 0.4108,-0.68 0.7347,-1.4066 0.9602,-2.1687 0.2116,-0.7153 0.4237,-1.4879 0.5954,-2.276 z"
   id="_295618376"
   style="fill:#00a0e3" />
   <path
   d="m 67.8765,120.646 c 2.1207,-0.2664 1.4883,-1.8295 3.2313,-3.0052 -0.3477,-0.5746 -0.5446,-0.8508 -0.5446,-1.5562 0.3748,-1.3494 0.03,-1.0015 -0.0878,-2.4221 -0.0541,-0.6529 -0.2845,-1.4143 0.0778,-2.1008 0.2535,-0.4804 0.8948,-1.0038 0.8948,-1.5951 0.2361,-0.4727 1.4167,-4.4151 1.521,-3.0537 0.0568,0.7424 -0.5117,4.6217 0.5273,4.3503 0.8168,-0.2134 -0.7251,3.597 -0.7251,4.3502 0,3.567 -1.4505,5.0083 -4.8947,5.0326 z"
   id="_295617992"
   style="fill:#a2d9f7" />
   <path
   d="m 80.2767,107.074 0.5626,0.3808 c 0.4882,0.3553 0.6628,0.3008 0.4306,0.9107 -0.4174,1.0964 -0.9612,2.0778 -1.6315,2.9444 -0.4759,0.6152 -0.4022,0.6791 -1.0609,0.489 l -0.5135,-0.1482 c 0.2647,-1.5549 0.657,-3.7985 2.2127,-4.5767 z"
   id="_295617440"
   style="fill:#00a0e3" />
   <path
   d="m 23.6293,97.8529 c -1.3569,1.1015 -2.8983,2.0296 -4.3011,2.9313 -1.1994,0.7709 -4.4449,-0.351 -5.0561,1.4826 0.7396,-0.3114 3.4704,-1.4222 4.1058,-0.2281 0.8813,1.6566 -2.0352,4.0628 -3.5735,4.2198 -3.1867,0.3251 -2.7236,-1.9256 -4.4099,-3.4215 C 7.8542,100.5833 3.9988,99.2821 1.993,96.4884 0.2687,94.0866 1.1567,92.212 1.1567,89.4175 l 0.8744,0 c 1.02,3.6267 3.8935,3.1141 6.6147,4.1057 2.4183,0.8812 2.9272,1.0894 2.9272,3.4974 0,-1.348 0.5686,-2.3833 1.6727,-2.9652 1.1674,-0.6154 2.3333,-1.637 3.5012,-2.2159 1.8623,3.8037 5.2989,4.0456 6.8824,6.0134 z m -9.8569,8.7575 c -2.1755,0.0216 -2.9462,-3.3243 -4.068,-3.9081 l -0.8268,0.6715 c -0.6533,0.5304 -0.7456,0.4269 -0.2012,1.0914 0.6611,0.8065 1.3699,1.5867 2.0187,2.4262 0.8786,1.137 2.0637,0.2705 3.0773,-0.281 z"
   id="_295617416"
   style="fill:#00a0e3" />
   <path
   d="m 2.036,89.4343 c 1.0243,3.608 3.8929,3.0989 6.6098,4.0889 2.4183,0.8812 2.9272,1.0894 2.9272,3.4974 0,-1.348 0.5686,-2.3833 1.6727,-2.9652 0.3907,-0.206 0.7812,-0.4575 1.1717,-0.7226 -0.1027,0.7552 -0.3442,1.4115 -0.8676,1.673 -1.3734,0.6861 -1.7602,3.743 -1.6346,5.4362 C 9.66,99.3145 9.6787,99.1228 8.5698,97.0966 7.4498,95.0504 6.1906,95.0556 4.0079,94.1314 2.7575,93.6021 1.0974,90.7638 1.803,89.4175 l 0.233,0.0168 z"
   id="_295616384"
   style="fill:#a2d9f7" />
  </g>
 </g>
</svg>